<?xml version="1.0" encoding="utf-8"?>
<!-- Generator: Adobe Illustrator 22.1.0, SVG Export Plug-In . SVG Version: 6.00 Build 0)  -->
<svg version="1.1" id="Layer_1" xmlns="http://www.w3.org/2000/svg" xmlns:xlink="http://www.w3.org/1999/xlink" x="0px" y="0px"
	 viewBox="0 0 846.7 1058.3" style="enable-background:new 0 0 846.7 1058.3;" xml:space="preserve">
<style type="text/css">
	.st0{fill:none;stroke:#000000;stroke-width:0.3;}
	.st1{font-family:'Arial-BoldMT';}
	.st2{font-size:5px;}
</style>
<g>
	<g>
		<g>
			<path d="M269.4,151.1l-120.6-35V179v64.1v28h120.6V151.1L269.4,151.1z M413,329.9V469h-42v-33.1c-63.8,0-127.6,0-191.5,0V469h-42
				V329.9H90v-37.2h370.5v37.2H413z M277.3,13.6c32.3,0,58.5,26.2,58.5,58.5c0,32.3-26.2,58.5-58.5,58.5s-58.5-26.2-58.5-58.5
				C218.8,39.8,245,13.6,277.3,13.6L277.3,13.6z M404.5,179h1.3l-0.7,0c17.1,0,31,14.3,31,32c0,17.4-13.5,31.6-30.3,32v28H285.2
				v-120l120.6-35V179v64.1l-0.7,0c-17.1,0-31-14.3-31-32C374,193.5,387.6,179.3,404.5,179L404.5,179z M148.9,179l0.7,0
				c-17.1,0-31,14.3-31,32c0,17.4,13.5,31.6,30.3,32l0.7,0c17.1,0,31-14.3,31-32c0-17.5-13.6-31.7-30.5-32H148.9z"/>
		</g>
		<line class="st0" x1="90" y1="-40.4" x2="90" y2="-4.4"/>
		<line class="st0" x1="36" y1="13.6" x2="72" y2="13.6"/>
		<line class="st0" x1="36" y1="469" x2="72" y2="469"/>
		<line class="st0" x1="90" y1="523" x2="90" y2="487"/>
		<line class="st0" x1="460.5" y1="-40.4" x2="460.5" y2="-4.4"/>
		<line class="st0" x1="514.5" y1="13.6" x2="478.5" y2="13.6"/>
		<line class="st0" x1="514.5" y1="469" x2="478.5" y2="469"/>
		<line class="st0" x1="460.5" y1="523" x2="460.5" y2="487"/>
	</g>
</g>
<text transform="matrix(1 0 0 1 0 861.66)" class="st1 st2">Created by callorine</text>
<text transform="matrix(1 0 0 1 0 866.66)" class="st1 st2">from the Noun Project</text>
</svg>
