<svg xmlns="http://www.w3.org/2000/svg" xmlns:xlink="http://www.w3.org/1999/xlink" version="1.1" x="0px" y="0px" viewBox="0 0 100 125" enable-background="new 0 0 100 100" xml:space="preserve"><g><g><path d="M94.291,18.455c-0.728-0.728-1.696-1.128-2.727-1.129c-2.062,0-3.857,1.796-3.857,3.856V36.57    c1.007,0.277,1.937,0.81,2.682,1.554c1.144,1.144,1.771,2.662,1.773,4.278c0,1.616-0.63,3.134-1.771,4.276    c0,0-0.002,0.001-0.002,0.002L78.261,58.807c-0.429,0.429-1.123,0.431-1.551,0c-0.429-0.428-0.429-1.122,0-1.551l12.128-12.128    l0.003-0.001c0.728-0.728,1.128-1.695,1.128-2.724c0-1.03-0.402-2-1.131-2.728c-0.569-0.569-1.278-0.923-2.06-1.059l-0.276-0.028    c-1.172-0.118-2.307,0.278-3.116,1.088L57.719,65.352c-1.437,1.438-2.251,3.353-2.289,5.396l-0.009,16.57    c0,1.062,0.861,1.924,1.923,1.924h13.773c1.062,0,1.922-0.861,1.922-1.924v-5.378l21.25-21.248c0.73-0.73,1.131-1.698,1.131-2.729    V21.182C95.42,20.152,95.02,19.184,94.291,18.455z"/><path d="M42.281,65.352L16.615,39.676c-0.81-0.81-1.946-1.206-3.115-1.088l-0.276,0.028c-0.782,0.136-1.493,0.49-2.062,1.059    c-0.729,0.728-1.13,1.697-1.13,2.728c-0.001,1.029,0.401,1.996,1.129,2.724v0.001L23.29,57.256c0.428,0.429,0.429,1.123,0,1.551    c-0.429,0.431-1.123,0.429-1.551,0L9.612,46.68C9.61,46.679,9.61,46.678,9.61,46.678c-1.144-1.142-1.772-2.66-1.771-4.276    c0-1.616,0.629-3.135,1.771-4.278c0.746-0.744,1.675-1.276,2.682-1.554V21.181c0.001-2.06-1.795-3.856-3.855-3.856    c-1.031,0.001-2,0.401-2.728,1.129C4.98,19.184,4.58,20.152,4.58,21.182v36.781c0.001,1.03,0.401,1.998,1.132,2.729l21.25,21.248    v5.378c0,1.062,0.861,1.924,1.921,1.924h13.776c1.06,0,1.921-0.861,1.921-1.924l-0.007-16.57    C44.532,68.704,43.719,66.789,42.281,65.352z"/></g><path d="M52.172,28.985h2.696c0.135,0.236,0.27,0.47,0.398,0.677c1.3,2.082,4.267,2.055,4.271,2.055   c0.007,0,2.971,0.027,4.272-2.055c0.129-0.207,0.262-0.44,0.396-0.677h2.733v-7.542h-0.035c0.176-2.497-0.327-6.184-1.379-7.715   c-1.968-2.87-5.981-2.858-5.988-2.858c-0.004,0-4.02-0.012-5.988,2.858c-1.052,1.531-1.555,5.218-1.377,7.715V28.985z"/><path d="M76.086,39.499c-0.139-0.94-0.39-2.136-0.848-3.394c-0.679-1.86-2.048-3.525-3.885-4.15   c-0.91-0.311-1.782-0.565-2.592-0.777h-1.822h-1.511c-1.942,2.653-5.474,2.732-5.896,2.732c-0.414,0-3.941-0.079-5.886-2.732   h-1.476h-1.858c-0.811,0.212-1.681,0.467-2.592,0.777c-1.836,0.625-3.207,2.29-3.884,4.15c-0.458,1.257-0.709,2.453-0.847,3.394   c-0.027,0.182-0.049,0.348-0.067,0.51c0.034,0.792,0.683,1.423,1.484,1.423h15.13h15.132c0.801,0,1.447-0.632,1.483-1.423   C76.134,39.847,76.112,39.681,76.086,39.499z"/><path d="M38.127,29.619c1.306,2.089,4.282,2.063,4.287,2.063c0.006,0,2.982,0.026,4.287-2.063c1.28-2.047,2.927-5.745,3.105-8.249   c0.179-2.503-0.327-6.204-1.38-7.741c-1.977-2.879-6.005-2.869-6.012-2.869c-0.004,0-4.034-0.011-6.01,2.869   c-1.054,1.538-1.559,5.238-1.381,7.741C35.201,23.874,36.848,27.571,38.127,29.619z"/><path d="M40.822,39.179c0.197-1.336,0.518-2.624,0.955-3.824c0.19-0.523,0.432-1.011,0.696-1.481c-0.023,0-0.051,0.001-0.064,0.001   c-0.432,0-4.262-0.087-6.143-3.095c-0.052-0.085-0.112-0.193-0.167-0.284c-1.432,0.253-3.373,0.686-5.544,1.425   c-1.843,0.625-3.218,2.296-3.898,4.164c-0.459,1.264-0.711,2.463-0.85,3.407c-0.027,0.181-0.048,0.35-0.068,0.511   c0.036,0.793,0.687,1.429,1.49,1.429h13.817c-0.18-0.408-0.292-0.855-0.312-1.327l-0.009-0.171l0.02-0.17   C40.767,39.576,40.792,39.384,40.822,39.179z"/></g><text x="0" y="115" fill="#000000" font-size="5px" font-weight="bold" font-family="'Helvetica Neue', Helvetica, Arial-Unicode, Arial, Sans-serif">Created by Diego Naive</text><text x="0" y="120" fill="#000000" font-size="5px" font-weight="bold" font-family="'Helvetica Neue', Helvetica, Arial-Unicode, Arial, Sans-serif">from the Noun Project</text></svg>